<svg xmlns="http://www.w3.org/2000/svg" width="512" height="512" viewBox="0 0 512 512">
  <defs>
    <linearGradient id="bg" x1="0%" y1="0%" x2="100%" y2="100%">
      <stop offset="0%" style="stop-color:#7c3aed"/>
      <stop offset="100%" style="stop-color:#4f46e5"/>
    </linearGradient>
  </defs>
  <rect width="512" height="512" rx="112" fill="url(#bg)"/>
  <!-- Bell body -->
  <path d="M256 100c-8 0-15 7-15 15v12c-50 10-88 54-88 106v60c0 20-16 36-16 36h238s-16-16-16-36v-60c0-52-38-96-88-106v-12c0-8-7-15-15-15z" fill="white" opacity="0.95"/>
  <!-- Bell clapper -->
  <circle cx="256" cy="365" r="24" fill="white" opacity="0.95"/>
  <!-- Sound waves left -->
  <path d="M120 200c-20 20-30 50-30 80s10 60 30 80" stroke="white" stroke-width="14" stroke-linecap="round" fill="none" opacity="0.5"/>
  <path d="M80 170c-30 35-48 78-48 110s18 75 48 110" stroke="white" stroke-width="14" stroke-linecap="round" fill="none" opacity="0.3"/>
  <!-- Sound waves right -->
  <path d="M392 200c20 20 30 50 30 80s-10 60-30 80" stroke="white" stroke-width="14" stroke-linecap="round" fill="none" opacity="0.5"/>
  <path d="M432 170c30 35 48 78 48 110s-18 75-48 110" stroke="white" stroke-width="14" stroke-linecap="round" fill="none" opacity="0.3"/>
</svg>
